<svg width="128" height="128" viewBox="0 0 128 128" fill="none" xmlns="http://www.w3.org/2000/svg">
<path d="M64 8L98 20L118 52L108 92L64 120L20 92L10 52L30 20L64 8Z" fill="#FF006E" stroke="#FFD3E6" stroke-width="4" stroke-linejoin="round"/>
<path d="M64 24L88 32L100 56L92 84L64 102L36 84L28 56L40 32L64 24Z" fill="#56133B"/>
<path d="M42 56L52 46L64 56L76 46L86 56" stroke="#FFD3E6" stroke-width="6" stroke-linecap="round" stroke-linejoin="round"/>
<circle cx="46" cy="64" r="8" fill="#FFD3E6"/>
<circle cx="82" cy="64" r="8" fill="#FFD3E6"/>
<path d="M50 84H78" stroke="#FFD3E6" stroke-width="6" stroke-linecap="round"/>
<path d="M24 22L40 36" stroke="#FFD3E6" stroke-width="6" stroke-linecap="round"/>
<path d="M104 22L88 36" stroke="#FFD3E6" stroke-width="6" stroke-linecap="round"/>
</svg>
